PathFileType	4	(X/Y/Z)	OpenSim_Sub04_EMGBaseline_Gyro.trc
DataRate	CameraRate	NumFrames	NumMarkers	Units	OrigDataRate	OrigDataStartFrame	OrigNumFrames
100	100	24	8	m	100	3971	7941
Frame#	Time	torso_imu_offset_imu	pelvis_imu_offset_imu	tibia_r_imu_offset_imu	femur_r_imu_offset_imu	tibia_l_imu_offset_imu	femur_l_imu_offset_imu	toes_r_imu_offset_imu	toes_l_imu_offset_imu
				X1	Y1	Z1	X2	Y2	Z2	X3	Y3	Z3	X4	Y4	Z4	X5	Y5	Z5	X6	Y6	Z6	X7	Y7	Z7	X8		Y8	Z8	

3971	39.70000000	0.39625235	0.37444207	-0.23636266	0.03887129	-0.00188270	0.25263713	-0.31519254	0.23901556	2.67561057	0.52635169	0.43658778	1.25415204	0.41940360	-0.25212313	0.67560956	-0.17960389	-0.43771396	0.58400147	-1.11631758	5.02089994	1.76409797	0.24074014	-0.31521773	0.22553147
3972	39.71000000	0.37327529	0.37348615	-0.24139746	0.02818220	0.03570619	0.21907450	-0.19506487	0.34665445	3.00617913	0.49385320	0.42945535	1.20588546	0.52573587	-0.22041265	0.70969217	-0.20667988	-0.36625963	0.61233112	-1.44240751	4.94378384	1.78594965	0.23225944	-0.31410422	0.22357023
3973	39.72000000	0.34280782	0.36858820	-0.24444246	0.01144931	0.06928689	0.20177262	0.08596006	0.52914069	3.37932701	0.46642951	0.41766706	1.14645938	0.58502747	-0.16954706	0.72284280	-0.19858774	-0.32141353	0.60148044	-1.53116521	4.79096798	1.78159994	0.20292519	-0.28756643	0.20239331
3974	39.73000000	0.30891491	0.37093516	-0.24939259	-0.00538254	0.07502058	0.20241448	0.37312442	0.79609063	3.78636710	0.44101329	0.41180998	1.07945073	0.58591486	-0.13632034	0.70918863	-0.17326385	-0.30199317	0.56839300	-1.35028800	4.56728562	1.72524680	0.19180999	-0.30340580	0.20315911
3975	39.74000000	0.27361656	0.37282657	-0.24855019	-0.01130968	0.07235657	0.21005980	0.49958458	0.90527396	4.16255603	0.40263785	0.40309577	1.01254910	0.56738652	-0.13270453	0.66883417	-0.14641999	-0.29821734	0.54586123	-1.06676843	4.50430445	1.64359395	0.17258504	-0.28711563	0.20473491
3976	39.75000000	0.24466175	0.37589975	-0.23519169	-0.00795332	0.07084260	0.22360469	0.48958567	0.80001745	4.46838653	0.34441307	0.38106344	0.91623648	0.50050645	-0.13258472	0.63294250	-0.13981408	-0.31228755	0.56896736	-0.84456020	4.62183882	1.55585912	0.19497417	-0.30065376	0.18933365
3977	39.76000000	0.21862029	0.36861798	-0.22153467	0.00487966	0.07527185	0.23069178	0.34510116	0.67472855	4.66699813	0.26128888	0.35059186	0.82753851	0.43607735	-0.12975465	0.59430091	-0.15925938	-0.34797849	0.59742868	-0.73624864	4.76473475	1.48748512	0.23433302	-0.30040521	0.16416591
3978	39.77000000	0.18701458	0.36822354	-0.19139867	0.02544784	0.08860292	0.23598614	0.18963562	0.63807893	4.74502668	0.17052470	0.31957794	0.74751999	0.38179170	-0.11090031	0.57477030	-0.16187737	-0.39717106	0.66070416	-0.75442121	4.83003380	1.44225678	0.20188238	-0.30142746	0.15599170
3979	39.78000000	0.14887177	0.37244729	-0.16677983	0.04664363	0.06594467	0.22320158	0.03738554	0.68869527	4.78246750	0.07374925	0.29168142	0.61571894	0.35833407	-0.09882319	0.54881292	-0.13760129	-0.41553180	0.72296491	-0.71425857	4.84174382	1.39905327	0.21231394	-0.33864901	0.14990560
3980	39.79000000	0.11791960	0.37508141	-0.14779452	0.07732101	0.04004440	0.21313632	-0.17558346	0.77870929	4.85961970	-0.03084690	0.28661840	0.46452677	0.33779595	-0.08572959	0.53579813	-0.10743461	-0.40423922	0.74166601	-0.55931447	4.78562662	1.34021319	0.27019085	-0.33937076	0.12294245
3981	39.80000000	0.08203400	0.37286736	-0.12649431	0.11371861	0.02077126	0.19823729	-0.42608290	0.88901413	4.92286119	-0.10296175	0.27935704	0.30916949	0.33564760	-0.07194735	0.53609803	-0.05628718	-0.37333098	0.73872758	-0.46304825	4.66108341	1.27949050	0.28990147	-0.38377121	0.14106519
3982	39.81000000	0.04989140	0.36133805	-0.10426023	0.15076579	0.02621362	0.17813541	-0.70243448	0.94906288	4.92686579	-0.17850604	0.24103085	0.15507934	0.35256091	-0.10794016	0.54633309	0.02624878	-0.34039338	0.73527259	-0.51538708	4.54546363	1.28978526	0.27667645	-0.40588685	0.19135599
3983	39.82000000	0.02960541	0.34236008	-0.07759521	0.19314768	0.02471547	0.16066700	-0.91739157	0.96106659	4.85494648	-0.28161988	0.18989756	0.00241115	0.36352972	-0.11187017	0.55467037	0.11447809	-0.31582964	0.74382545	-0.59206738	4.53879426	1.35687786	0.35517043	-0.43351093	0.21232215
3984	39.83000000	0.00884628	0.32722292	-0.05039427	0.24279460	0.00513992	0.14891618	-1.06656204	0.98860538	4.79334039	-0.39148852	0.15101744	-0.14245980	0.44254196	-0.07262138	0.54187477	0.19583558	-0.29413814	0.76461072	-0.50888527	4.56720366	1.40026687	0.33770151	-0.43709531	0.23240067
3985	39.84000000	-0.01701967	0.30900190	-0.02273416	0.28794375	-0.01419710	0.12513071	-1.09851340	0.97640481	4.76365208	-0.47285724	0.13855673	-0.28256802	0.47066795	-0.06501119	0.55352573	0.26106647	-0.25669066	0.78027414	-0.28216017	4.52638894	1.39039879	0.31611464	-0.42182294	0.23730443
3986	39.85000000	-0.05272535	0.27209185	-0.00172083	0.33513704	-0.02989859	0.10840574	-1.06368487	0.83858400	4.69475386	-0.49739671	0.13428732	-0.42048991	0.50193692	-0.05987208	0.58568464	0.30976681	-0.22073559	0.77248286	-0.07547290	4.36140201	1.35037965	0.36642533	-0.42739965	0.22325599
3987	39.86000000	-0.09388968	0.24575348	0.01651016	0.38054852	-0.01653793	0.08603384	-1.00649966	0.66127085	4.53550628	-0.48277160	0.14279318	-0.55460136	0.51307061	-0.03611145	0.64428420	0.36743910	-0.17659213	0.75655710	0.04243953	4.16203438	1.33181149	0.35920851	-0.42985950	0.21935500
3988	39.87000000	-0.12121837	0.20210232	0.03779042	0.42318773	0.01730045	0.07105698	-0.86825866	0.57060945	4.29046374	-0.39694672	0.15521733	-0.67839038	0.51467487	-0.02123084	0.68585333	0.44720922	-0.12916738	0.72666633	0.07684740	3.93655388	1.31187745	0.32960993	-0.46282666	0.22334635
3989	39.88000000	-0.15758267	0.15697908	0.06175031	0.45817925	0.05510928	0.06571210	-0.64193122	0.56682345	4.03249988	-0.24287941	0.18084622	-0.78312844	0.48664122	-0.00861995	0.72281821	0.51239764	-0.09081543	0.67999491	0.01365595	3.73678452	1.28990353	0.31328458	-0.46412852	0.22666559
3990	39.89000000	-0.19544088	0.13379229	0.08864216	0.47808327	0.08249231	0.06226557	-0.37292943	0.56351742	3.76993614	-0.04104722	0.17730174	-0.85226117	0.45527249	0.02015566	0.76356912	0.52743001	-0.05459649	0.63252072	-0.14676829	3.54271863	1.26547377	0.30206345	-0.48964125	0.23527593
3991	39.90000000	-0.23001343	0.13076618	0.11638116	0.49665318	0.09387497	0.05801021	-0.15766430	0.51608166	3.44742587	0.19483920	0.12141128	-0.85962994	0.43983049	0.00732348	0.81659930	0.51703966	-0.03865426	0.59858702	-0.28729524	3.31849503	1.23339158	0.26451797	-0.51044855	0.26550360
3992	39.91000000	-0.26250596	0.12327047	0.14101352	0.50228568	0.10799254	0.04775638	-0.01743676	0.44634320	3.05269747	0.40555346	0.05921886	-0.77634038	0.44397554	-0.01778677	0.85399300	0.48636148	-0.04492740	0.57654030	-0.34354093	2.98098735	1.19364765	0.22322831	-0.58203904	0.31451344
3993	39.92000000	-0.27814574	0.11175723	0.16465770	0.49323485	0.07592709	0.04804910	0.14523376	0.36159893	2.60492369	0.54093971	0.04255728	-0.60926752	0.41064804	-0.02500176	0.88159796	0.43157449	-0.06173463	0.57301700	-0.34913834	2.51664652	1.15903953	0.16887776	-0.62885800	0.36027601
3994	39.93000000	-0.29785026	0.10366988	0.19291944	0.47659439	0.04466904	0.04125979	0.31936598	0.27163928	2.14056204	0.50631907	0.02487824	-0.41675426	0.36425483	-0.01154795	0.91642417	0.38541364	-0.07258585	0.56789421	-0.40127887	1.97483361	1.14272098	0.16860728	-0.69316253	0.40339236
